<svg xmlns="http://www.w3.org/2000/svg" width="24" height="24" viewBox="0 0 24 24"><path fill="currentColor" d="M17.129 13.375a3.985 3.985 0 0 0 .7-6.203A4 4 0 0 0 15 6c-.75 0-1.443.219-2.043.578C12.744 4.57 11.065 3 9 3a4 4 0 0 0-4 4c0 1.442.771 2.696 1.915 3.399A6.136 6.136 0 0 0 3 15.913c0 .232.114.464.343.58C5.171 17.536 7 18 9.057 18c.017 0 .033-.003.051-.003a6.16 6.16 0 0 0-.108.916c0 .232.114.464.343.58C11.171 20.536 13 21 15.057 21c2.057 0 3.886-.464 5.6-1.391a.639.639 0 0 0 .343-.58c0-2.62-1.599-4.811-3.871-5.654zm-6.582 5.064c.028-.189.082-.367.13-.547.077-.285.178-.558.304-.818a4.62 4.62 0 0 1 .526-.858 4.46 4.46 0 0 1 2.544-1.59c.246-.056.5-.088.76-.102.083-.005.163-.023.247-.023 2.325 0 4.18 1.733 4.417 4.028-1.368.653-2.819.972-4.417.972-1.647-.001-3.094-.34-4.511-1.062zM9 4.5c1.378 0 2.5 1.122 2.5 2.5S10.378 9.5 9 9.5A2.503 2.503 0 0 1 6.5 7c0-1.378 1.122-2.5 2.5-2.5zm6 8a2.48 2.48 0 0 1-1.575-.574 2.505 2.505 0 0 1-.359-.361A2.48 2.48 0 0 1 12.5 10c0-1.378 1.122-2.5 2.5-2.5s2.5 1.122 2.5 2.5-1.122 2.5-2.5 2.5zm-5.943-1c1.136 0 2.156.418 2.933 1.109.117.104.219.222.324.337.149.164.286.337.41.523a6.107 6.107 0 0 0-3.122 3.003c-.181.009-.359.028-.545.028-1.646 0-3.093-.339-4.51-1.061.328-2.247 2.218-3.939 4.51-3.939z"></path></svg>